<mxfile host="app.diagrams.net" modified="2024-02-19T11:26:36.807Z" agent="Mozilla/5.0 (Windows NT 10.0; Win64; x64) AppleWebKit/537.36 (KHTML, like Gecko) Chrome/121.0.0.0 Safari/537.36" etag="8LUzqCBHFnF8b99wkVTD" version="23.1.5" type="google">
  <diagram name="Page-1" id="cbpPXX-dyT5s-ZYUZ89M">
    <mxGraphModel dx="1877" dy="-639" grid="1" gridSize="10" guides="1" tooltips="1" connect="1" arrows="1" fold="1" page="1" pageScale="1" pageWidth="827" pageHeight="1169" math="0" shadow="0">
      <root>
        <mxCell id="0" />
        <mxCell id="1" parent="0" />
        <mxCell id="shT0HkmOFGitXh8zyB-2-36" value="foaf: Person" style="graphMlID=n4;shape=rect;rounded=1;arcsize=30;fillColor=#ffff00;strokeColor=#000000;strokeWidth=1.0;fontStyle=1" parent="1" vertex="1">
          <mxGeometry x="680" y="1657" width="94.97" height="40" as="geometry" />
        </mxCell>
        <mxCell id="shT0HkmOFGitXh8zyB-2-37" value="actspec:Activity&#xa;(Lottery)" style="graphMlID=n4;shape=rect;rounded=1;arcsize=30;fillColor=#ffff00;strokeColor=#000000;strokeWidth=1.0;fontStyle=1" parent="1" vertex="1">
          <mxGeometry x="325" y="1652" width="150.99" height="50" as="geometry" />
        </mxCell>
        <mxCell id="shT0HkmOFGitXh8zyB-2-41" value="fs:Pattern&#xa;(Pattern in lottery numbers)" style="graphMlID=n4;shape=rect;rounded=1;arcsize=30;fillColor=#ffff00;strokeColor=#000000;strokeWidth=1.0;fontStyle=1" parent="1" vertex="1">
          <mxGeometry x="70.98" y="1754" width="160" height="50" as="geometry" />
        </mxCell>
        <mxCell id="shT0HkmOFGitXh8zyB-2-48" value="" style="graphMlID=e0;rounded=0;endArrow=block;strokeColor=#000080;strokeWidth=1.0;startArrow=oval;startFill=1;endFill=1;exitX=1;exitY=0.5;exitDx=0;exitDy=0;entryX=0.5;entryY=1;entryDx=0;entryDy=0;" parent="1" source="shT0HkmOFGitXh8zyB-2-41" target="shT0HkmOFGitXh8zyB-2-37" edge="1">
          <mxGeometry relative="1" as="geometry">
            <mxPoint x="519.0100000000002" y="1779" as="sourcePoint" />
            <mxPoint x="420" y="1780" as="targetPoint" />
          </mxGeometry>
        </mxCell>
        <mxCell id="shT0HkmOFGitXh8zyB-2-49" value="&lt;span style=&quot;color: rgb(0 , 0 , 128) ; font-family: &amp;quot;dialog&amp;quot; ; font-size: 16px ; background-color: rgb(248 , 249 , 250)&quot;&gt;&lt;b&gt;exob:&lt;/b&gt;isReflectionOn&lt;/span&gt;" style="text;html=1;align=center;verticalAlign=middle;resizable=0;points=[];labelBackgroundColor=#ffffff;" parent="shT0HkmOFGitXh8zyB-2-48" vertex="1" connectable="0">
          <mxGeometry x="-0.0174" y="2" relative="1" as="geometry">
            <mxPoint x="-26" y="-3" as="offset" />
          </mxGeometry>
        </mxCell>
        <mxCell id="shT0HkmOFGitXh8zyB-2-52" value="&lt;span style=&quot;color: rgb(0 , 0 , 128) ; font-family: &amp;quot;dialog&amp;quot; ; font-size: 16px ; background-color: rgb(248 , 249 , 250)&quot;&gt;&lt;b&gt;exob&lt;/b&gt;:inActivity&lt;/span&gt;" style="text;html=1;align=center;verticalAlign=middle;resizable=0;points=[];labelBackgroundColor=#ffffff;" parent="1" vertex="1" connectable="0">
          <mxGeometry x="580" y="1670" as="geometry">
            <mxPoint x="-1" y="-4" as="offset" />
          </mxGeometry>
        </mxCell>
        <mxCell id="shT0HkmOFGitXh8zyB-2-58" value="" style="graphMlID=e0;rounded=0;endArrow=block;strokeColor=#000080;strokeWidth=1.0;startArrow=oval;startFill=1;endFill=1;exitX=0.5;exitY=1;exitDx=0;exitDy=0;entryX=0;entryY=0.5;entryDx=0;entryDy=0;" parent="1" source="shT0HkmOFGitXh8zyB-2-73" target="shT0HkmOFGitXh8zyB-2-41" edge="1">
          <mxGeometry relative="1" as="geometry">
            <mxPoint x="395.9849999999999" y="2018" as="sourcePoint" />
            <mxPoint x="440" y="1920" as="targetPoint" />
          </mxGeometry>
        </mxCell>
        <mxCell id="shT0HkmOFGitXh8zyB-2-59" value="&lt;span style=&quot;color: rgb(0 , 0 , 128) ; font-family: &amp;quot;dialog&amp;quot; ; font-size: 16px ; background-color: rgb(248 , 249 , 250)&quot;&gt;&lt;b&gt;exob&lt;/b&gt;:producesObservation&lt;/span&gt;" style="text;html=1;align=center;verticalAlign=middle;resizable=0;points=[];labelBackgroundColor=#ffffff;" parent="shT0HkmOFGitXh8zyB-2-58" vertex="1" connectable="0">
          <mxGeometry x="-0.0174" y="2" relative="1" as="geometry">
            <mxPoint x="-21" y="2" as="offset" />
          </mxGeometry>
        </mxCell>
        <mxCell id="shT0HkmOFGitXh8zyB-2-73" value="fs:ExperiencerObj&#xa;(Consecutive Digits)" style="graphMlID=n4;shape=rect;rounded=1;arcsize=30;fillColor=#ffff00;strokeColor=#000000;strokeWidth=1.0;fontStyle=1" parent="1" vertex="1">
          <mxGeometry x="-110" y="1652" width="130" height="44" as="geometry" />
        </mxCell>
        <mxCell id="shT0HkmOFGitXh8zyB-2-74" value="" style="graphMlID=e0;rounded=0;endArrow=block;strokeColor=#000080;strokeWidth=1.0;startArrow=oval;startFill=1;endFill=1;exitX=0;exitY=0.5;exitDx=0;exitDy=0;entryX=1;entryY=0.5;entryDx=0;entryDy=0;" parent="1" source="shT0HkmOFGitXh8zyB-2-36" target="shT0HkmOFGitXh8zyB-2-37" edge="1">
          <mxGeometry relative="1" as="geometry">
            <mxPoint x="500" y="1689.5818375889874" as="sourcePoint" />
            <mxPoint x="651" y="1689.5" as="targetPoint" />
            <Array as="points">
              <mxPoint x="600" y="1677" />
            </Array>
          </mxGeometry>
        </mxCell>
        <mxCell id="shT0HkmOFGitXh8zyB-2-76" value="dbo:Illusion" style="graphMlID=n4;shape=rect;rounded=1;arcsize=30;fillColor=#ffff00;strokeColor=#000000;strokeWidth=1.0;fontStyle=1" parent="1" vertex="1">
          <mxGeometry x="109.99999999999999" y="1550" width="81.96822102864604" height="44" as="geometry" />
        </mxCell>
        <mxCell id="shT0HkmOFGitXh8zyB-2-79" value="" style="graphMlID=e5;rounded=0;endArrow=block;strokeColor=#000080;dashed=1;dashPattern=1 1;strokeWidth=1.0;startArrow=oval;startFill=1;endFill=1;exitX=0;exitY=0.5;exitDx=0;exitDy=0;entryX=0.5;entryY=0;entryDx=0;entryDy=0;" parent="1" source="shT0HkmOFGitXh8zyB-2-76" target="shT0HkmOFGitXh8zyB-2-73" edge="1">
          <mxGeometry relative="1" as="geometry">
            <mxPoint x="115" y="1702" as="sourcePoint" />
            <mxPoint x="546" y="1740" as="targetPoint" />
          </mxGeometry>
        </mxCell>
        <mxCell id="shT0HkmOFGitXh8zyB-2-80" value="&lt;span style=&quot;color: rgb(0 , 0 , 128) ; font-family: &amp;quot;dialog&amp;quot; ; font-size: 16px ; background-color: rgb(248 , 249 , 250)&quot;&gt;&lt;b&gt;cbo&lt;/b&gt;:involves&lt;/span&gt;" style="text;html=1;align=center;verticalAlign=middle;resizable=0;points=[];labelBackgroundColor=#ffffff;" parent="shT0HkmOFGitXh8zyB-2-79" vertex="1" connectable="0">
          <mxGeometry x="-0.1377" y="-3" relative="1" as="geometry">
            <mxPoint x="21" as="offset" />
          </mxGeometry>
        </mxCell>
        <mxCell id="shT0HkmOFGitXh8zyB-2-83" value="" style="graphMlID=e0;rounded=0;endArrow=block;strokeColor=#000080;strokeWidth=1.0;startArrow=oval;startFill=1;endFill=1;entryX=1;entryY=0.5;entryDx=0;entryDy=0;" parent="1" target="shT0HkmOFGitXh8zyB-2-76" edge="1">
          <mxGeometry relative="1" as="geometry">
            <mxPoint x="400" y="1650" as="sourcePoint" />
            <mxPoint x="491" y="1740" as="targetPoint" />
          </mxGeometry>
        </mxCell>
        <mxCell id="shT0HkmOFGitXh8zyB-2-84" value="&lt;span style=&quot;color: rgb(0 , 0 , 128) ; font-family: &amp;quot;dialog&amp;quot; ; font-size: 16px ; background-color: rgb(248 , 249 , 250)&quot;&gt;&lt;b&gt;cbo&lt;/b&gt;:creates&lt;/span&gt;" style="text;html=1;align=center;verticalAlign=middle;resizable=0;points=[];labelBackgroundColor=#ffffff;" parent="shT0HkmOFGitXh8zyB-2-83" vertex="1" connectable="0">
          <mxGeometry x="-0.0174" y="2" relative="1" as="geometry">
            <mxPoint as="offset" />
          </mxGeometry>
        </mxCell>
        <mxCell id="shT0HkmOFGitXh8zyB-2-85" value="Prefixes" style="graphMlID=n0;shape=swimlane;startSize=20;fillColor=#b7b69e;strokeColor=#000000;strokeWidth=1.0;align=right;spacingRight=10;fontStyle=1" parent="1" vertex="1">
          <mxGeometry x="-50" y="1260" width="590" height="140" as="geometry">
            <mxRectangle x="-550" y="110" width="100" height="30" as="alternateBounds" />
          </mxGeometry>
        </mxCell>
        <UserObject label="&lt;b style=&quot;border-color: var(--border-color);&quot;&gt;actspec:&lt;/b&gt;&lt;span style=&quot;border-color: var(--border-color);&quot;&gt;http://ontology.eil.utoronto.ca/icity/ActivitySpecification&lt;br&gt;&lt;/span&gt;&lt;b&gt;dbo:&lt;/b&gt;https://dbpedia.org/page/Illusion&lt;br&gt;&lt;b&gt;cbo&lt;/b&gt;:https://github.com/corrado877/CognitiveBiasOntologies/tree/main/Pareidolia%20Ontology&lt;br&gt;&lt;b&gt;exob:&lt;/b&gt;https://raw.githubusercontent.com/modellingDH/odp_experience/master/owl/cp_experience.owl.rdfxml&lt;br&gt;&lt;b style=&quot;border-color: var(--border-color);&quot;&gt;foaf:&amp;nbsp;&lt;/b&gt;&lt;span style=&quot;border-color: var(--border-color); background-color: initial;&quot;&gt;http://xmlns.com/foaf/0.1/&lt;br&gt;&lt;b style=&quot;border-color: var(--border-color);&quot;&gt;fs&lt;/b&gt;:https://w3id.org/framester/data/framestercore/&lt;br&gt;&lt;/span&gt;&lt;div&gt;&lt;br&gt;&lt;/div&gt;" link="http://www.w3.org/2000/01/rdf-schema#" id="shT0HkmOFGitXh8zyB-2-86">
          <mxCell style="text;whiteSpace=wrap;html=1;" parent="shT0HkmOFGitXh8zyB-2-85" vertex="1">
            <mxGeometry x="5.98" y="30" width="640" height="170" as="geometry" />
          </mxCell>
        </UserObject>
        <mxCell id="shT0HkmOFGitXh8zyB-2-88" value="ODPs and Ontologies Used" style="graphMlID=n0;shape=swimlane;startSize=20;fillColor=#b7b69e;strokeColor=#000000;strokeWidth=1.0;align=right;spacingRight=10;fontStyle=1" parent="1" vertex="1">
          <mxGeometry x="650" y="1250" width="320" height="80" as="geometry" />
        </mxCell>
        <mxCell id="shT0HkmOFGitXh8zyB-2-89" value="&lt;ul&gt;&lt;li style=&quot;border-color: var(--border-color);&quot;&gt;ActivitySpecification&lt;/li&gt;&lt;li style=&quot;border-color: var(--border-color);&quot;&gt;Experience and Observation&lt;/li&gt;&lt;/ul&gt;" style="text;html=1;strokeColor=none;fillColor=none;align=left;verticalAlign=middle;whiteSpace=wrap;rounded=0;" parent="shT0HkmOFGitXh8zyB-2-88" vertex="1">
          <mxGeometry x="-20" y="-20" width="270" height="142" as="geometry" />
        </mxCell>
      </root>
    </mxGraphModel>
  </diagram>
</mxfile>
